# xmcd
#
# Track frame offsets:
#	150
#	18678
#	37631
#	49049
#	65526
#	93162
#	108916
#	128463
#	143398
#
# Disc length: 2232 seconds
#
# Revision: 2
# Processed by: cddbd v1.4PL0 Copyright (c) Steve Scherf et al.
# Submitted via: EasyCDDAExtractor 5.0.6
#
DISCID=6308b609
DTITLE=Albert King - Blues for Elvis (King Does The King's Things)
DYEAR=1900
DGENRE=Blues
TTITLE0=Hound Dog
TTITLE1=That's All Right
TTITLE2=All Shook Up
TTITLE3=Jailhouse Rock
TTITLE4=Heartbreak Hotel
TTITLE5=Don't Be Cruel
TTITLE6=One Night
TTITLE7=Blue Suede Shoes
TTITLE8=Love Me Tender
EXTD=
EXTT0=
EXTT1=
EXTT2=
EXTT3=
EXTT4=
EXTT5=
EXTT6=
EXTT7=
EXTT8=
PLAYORDER=
